<?xml version="1.0" encoding="utf-8"?>
<!-- Generator: Adobe Illustrator 21.0.0, SVG Export Plug-In . SVG Version: 6.00 Build 0)  -->
<svg version="1.1" id="Layer_1" xmlns="http://www.w3.org/2000/svg" xmlns:xlink="http://www.w3.org/1999/xlink" x="0px" y="0px"
	 viewBox="0 0 240 257" style="enable-background:new 0 0 240 257;" xml:space="preserve">
<style type="text/css">
	.st0{fill:#342F8F;}
	.st1{fill:#00A7CD;}
	.st2{fill:#3B6AB2;}
	.st3{fill:#32134E;}
</style>
<ellipse class="st0" cx="184.5" cy="164.5" rx="54.5" ry="54.5"/>
<ellipse class="st1" cx="90" cy="77.5" rx="76" ry="77.5"/>
<circle class="st1" cx="105.5" cy="188.5" r="68.5"/>
<circle class="st0" cx="51" cy="137" r="51"/>
<ellipse class="st2" cx="169.5" cy="82" rx="70.5" ry="71"/>
<ellipse id="a_1_" class="st3" cx="120.5" cy="138.5" rx="61.5" ry="61.5"/>
<path class="st2" d="M106.6,112.8c2.4,0,4.3,1.9,4.3,4.3s-1.9,4.3-4.3,4.3s-4.3-1.9-4.3-4.3S104.3,112.8,106.6,112.8z M133.4,112.8
	c2.4,0,4.3,1.9,4.3,4.3s-1.9,4.3-4.3,4.3s-4.3-1.9-4.3-4.3S131,112.8,133.4,112.8z M83,98v40h32.5v3.4l-32.5,0V200h18.9l14.4-14.4
	l-8.3-8.3l8.3-8.3l-2.4-2.4l-10.7,10.7l4.7,4.7l-9.5,9.5h-6.9v-41.6h57.1v41.6h-6.9l-9.5-9.5l4.7-4.7l-10.7-10.7l-2.4,2.4l8.3,8.3
	l-8.3,8.3l14.4,14.4H157v-58.6l-32.5,0V138H157V98H83z M148.5,129.5H91.5v-23.6h57.1V129.5z M113,177.3l7-7l7,7l-7,7L113,177.3z"/>
</svg>
