<svg xmlns="http://www.w3.org/2000/svg" viewBox="0 0 186.22 79.84"><defs><style>.cls-1{fill:#231f20;}</style></defs><title>Sillibi_Horz-Logo</title><g id="Layer_2" data-name="Layer 2"><g id="Layer_1-2" data-name="Layer 1"><path class="cls-1" d="M98.32,38.39a11.67,11.67,0,0,1-3-1,1.29,1.29,0,0,1-.64-1.13,1.4,1.4,0,0,1,.52-1.14,2.19,2.19,0,0,1,1.43-.43,6.65,6.65,0,0,1,3.2.85,1.52,1.52,0,0,0,2-.44l.15-.22a1.48,1.48,0,0,0-.44-2.13,9.33,9.33,0,0,0-1.54-.68,10,10,0,0,0-3.25-.56,6.69,6.69,0,0,0-4.15,1.25A4.21,4.21,0,0,0,91,36.34a4.14,4.14,0,0,0,1.31,3.39,10.4,10.4,0,0,0,4.15,1.75,7.9,7.9,0,0,1,2.39.87,1.36,1.36,0,0,1,.6,1.16,1.38,1.38,0,0,1-.57,1.16,2.55,2.55,0,0,1-1.57.43,6.57,6.57,0,0,1-3.74-1.41,1.51,1.51,0,0,0-2,.25l-.28.34a1.5,1.5,0,0,0,.27,2.16,9.66,9.66,0,0,0,5.73,1.86A6.53,6.53,0,0,0,101.55,47a4.39,4.39,0,0,0,1.64-3.54,4.22,4.22,0,0,0-1.28-3.32A8.31,8.31,0,0,0,98.32,38.39Z"/><rect class="cls-1" x="109.5" y="31.89" width="3.62" height="16.24" rx="1.5" ry="1.5"/><path class="cls-1" d="M129.37,44.9h-4.92a.5.5,0,0,1-.5-.5v-11a1.5,1.5,0,0,0-1.5-1.5h-.62a1.5,1.5,0,0,0-1.5,1.5V46.63a1.5,1.5,0,0,0,1.5,1.5h7.55a1.5,1.5,0,0,0,1.5-1.5V46.4A1.5,1.5,0,0,0,129.37,44.9Z"/><path class="cls-1" d="M145.46,44.9h-4.92a.5.5,0,0,1-.5-.5v-11a1.5,1.5,0,0,0-1.5-1.5h-.62a1.5,1.5,0,0,0-1.5,1.5V46.63a1.5,1.5,0,0,0,1.5,1.5h7.55a1.5,1.5,0,0,0,1.5-1.5V46.4A1.5,1.5,0,0,0,145.46,44.9Z"/><rect class="cls-1" x="152.51" y="31.89" width="3.62" height="16.24" rx="1.5" ry="1.5"/><path class="cls-1" d="M173,39.7l.58-.27a4.44,4.44,0,0,0,.58-.41,3.32,3.32,0,0,0,1.23-2.83,4.2,4.2,0,0,0-1.09-2.83,4.08,4.08,0,0,0-1.8-1.07,9.12,9.12,0,0,0-2.85-.4h-4.82a1.5,1.5,0,0,0-1.5,1.5V46.63a1.5,1.5,0,0,0,1.5,1.5h5.61q3.35,0,4.69-1.51a4.37,4.37,0,0,0,1.16-3,3.79,3.79,0,0,0-.9-2.57A4.26,4.26,0,0,0,173,39.7Zm-6-4.24a.5.5,0,0,1,.5-.5h1.24a5.35,5.35,0,0,1,2.28.35,1.45,1.45,0,0,1,.67,1.43,1.37,1.37,0,0,1-.73,1.41,5.82,5.82,0,0,1-2.24.33h-1.22a.5.5,0,0,1-.5-.5Zm4.82,9.22a5.49,5.49,0,0,1-2.34.38h-2a.5.5,0,0,1-.5-.5V41.83a.5.5,0,0,1,.5-.5h1.64a7.08,7.08,0,0,1,2.64.36,1.45,1.45,0,0,1,.82,1.49A1.52,1.52,0,0,1,171.78,44.68Z"/><rect class="cls-1" x="182.59" y="31.89" width="3.62" height="16.24" rx="1.5" ry="1.5"/><path class="cls-1" d="M39.92,0A39.92,39.92,0,1,0,79.84,39.92,39.92,39.92,0,0,0,39.92,0ZM69.54,21.48a3.84,3.84,0,0,1-.09,3L54.25,58.26a4.48,4.48,0,0,1-4.09,2.66h0a4.75,4.75,0,0,1-.74-.06,4.48,4.48,0,0,1-3.78-3.92,12.1,12.1,0,0,0-1.52-4.67l-1-1.75-.92,1.78a20.16,20.16,0,0,1-7.73,8.17,3.81,3.81,0,0,1-1.79.44,3.87,3.87,0,0,1-1.8-7.29,12.42,12.42,0,0,0,5.82-10.84c0-3.69-1.28-5.51-3.06-8l-.76-1.08-1.08-1.57L19.92,58.57a3.88,3.88,0,0,1-3.53,2.28,3.87,3.87,0,0,1-3.52-5.45l15.2-33.82a4.48,4.48,0,0,1,4.09-2.66,4.75,4.75,0,0,1,.74.06,4.48,4.48,0,0,1,3.78,3.92,12.11,12.11,0,0,0,1.52,4.67l1,1.75.92-1.78a20.16,20.16,0,0,1,7.73-8.17,3.82,3.82,0,0,1,1.79-.44,3.87,3.87,0,0,1,1.8,7.29,12.42,12.42,0,0,0-5.82,10.84c0,3.69,1.28,5.51,3.06,8l.76,1.09,1.08,1.57L62.4,21.27A3.88,3.88,0,0,1,65.93,19a3.87,3.87,0,0,1,3.61,2.49Z"/></g></g></svg>