<svg xmlns="http://www.w3.org/2000/svg" width="187" height="80" viewBox="0 0 187 80">
  <g fill="#FFFFFF" fill-rule="evenodd" transform="translate(0 -1)">
    <path d="M98.3176 39.3865C96.7756 39.0075 95.7926 38.6775 95.3666 38.3985 94.9406 38.1195 94.7276 37.7445 94.7276 37.2715 94.7276 36.7995 94.9016 36.4205 95.2506 36.1335 95.5986 35.8465 96.0756 35.7035 96.6796 35.7035 97.7716 35.7035 98.8386 35.9865 99.8816 36.5505 100.5716 36.9245 101.4266 36.7595 101.8736 36.1145L102.0286 35.8915C102.5176 35.1865 102.3366 34.1815 101.5886 33.7615 101.1106 33.4935 100.5976 33.2665 100.0486 33.0775 98.9636 32.7055 97.8796 32.5205 96.7956 32.5205 95.1376 32.5205 93.7556 32.9385 92.6476 33.7745 91.5406 34.6115 90.9866 35.8005 90.9866 37.3415 90.9866 38.8835 91.4236 40.0135 92.2996 40.7345 93.1736 41.4545 94.5566 42.0395 96.4466 42.4885 97.6396 42.7825 98.4376 43.0735 98.8406 43.3595 99.2426 43.6465 99.4446 44.0335 99.4446 44.5215 99.4446 45.0095 99.2546 45.3975 98.8756 45.6835 98.4956 45.9705 97.9726 46.1135 97.3066 46.1135 96.1416 46.1135 94.8956 45.6425 93.5676 44.7005 92.9176 44.2395 92.0226 44.3375 91.5186 44.9555L91.2396 45.2965C90.6986 45.9595 90.8106 46.9595 91.5076 47.4565 93.2506 48.6995 95.1606 49.3205 97.2366 49.3205 99.0186 49.3205 100.4556 48.8665 101.5466 47.9605 102.6396 47.0545 103.1856 45.8735 103.1856 44.4175 103.1856 42.9615 102.7586 41.8535 101.9076 41.0945 101.0556 40.3355 99.8586 39.7665 98.3176 39.3865M111.6232 32.8919L110.9982 32.8919C110.1702 32.8919 109.4982 33.5629 109.4982 34.3919L109.4982 47.6339C109.4982 48.4629 110.1702 49.1339 110.9982 49.1339L111.6232 49.1339C112.4512 49.1339 113.1232 48.4629 113.1232 47.6339L113.1232 34.3919C113.1232 33.5629 112.4512 32.8919 111.6232 32.8919M129.3732 45.9041L124.4492 45.9041C124.1722 45.9041 123.9492 45.6801 123.9492 45.4041L123.9492 34.3921C123.9492 33.5631 123.2772 32.8921 122.4492 32.8921L121.8242 32.8921C120.9962 32.8921 120.3242 33.5631 120.3242 34.3921L120.3242 47.6341C120.3242 48.4631 120.9962 49.1341 121.8242 49.1341L129.3732 49.1341C130.2012 49.1341 130.8732 48.4631 130.8732 47.6341L130.8732 47.4041C130.8732 46.5761 130.2012 45.9041 129.3732 45.9041M145.4641 45.9041L140.5401 45.9041C140.2631 45.9041 140.0401 45.6801 140.0401 45.4041L140.0401 34.3921C140.0401 33.5631 139.3681 32.8921 138.5401 32.8921L137.9151 32.8921C137.0871 32.8921 136.4151 33.5631 136.4151 34.3921L136.4151 47.6341C136.4151 48.4631 137.0871 49.1341 137.9151 49.1341L145.4641 49.1341C146.2921 49.1341 146.9641 48.4631 146.9641 47.6341L146.9641 47.4041C146.9641 46.5761 146.2921 45.9041 145.4641 45.9041M154.6306 32.8919L154.0056 32.8919C153.1776 32.8919 152.5056 33.5629 152.5056 34.3919L152.5056 47.6339C152.5056 48.4629 153.1776 49.1339 154.0056 49.1339L154.6306 49.1339C155.4586 49.1339 156.1306 48.4629 156.1306 47.6339L156.1306 34.3919C156.1306 33.5629 155.4586 32.8919 154.6306 32.8919M171.778 45.6834C171.258 45.9394 170.48 46.0664 169.442 46.0664L167.456 46.0664C167.18 46.0664 166.956 45.8434 166.956 45.5664L166.956 42.8264C166.956 42.5494 167.18 42.3264 167.456 42.3264L169.093 42.3264C170.302 42.3264 171.181 42.4464 171.731 42.6854 172.281 42.9264 172.556 43.4224 172.556 44.1734 172.556 44.9244 172.297 45.4284 171.778 45.6834L171.778 45.6834zM166.956 36.4594C166.956 36.1834 167.18 35.9594 167.456 35.9594L168.699 35.9594C169.767 35.9594 170.526 36.0754 170.976 36.3074 171.425 36.5394 171.65 37.0164 171.65 37.7364 171.65 38.4564 171.406 38.9254 170.918 39.1424 170.43 39.3594 169.682 39.4674 168.675 39.4674L167.456 39.4674C167.18 39.4674 166.956 39.2444 166.956 38.9674L166.956 36.4594zM172.998 40.6994C173.276 40.5754 173.469 40.4864 173.579 40.4324 173.686 40.3784 173.881 40.2424 174.16 40.0254 174.98 39.4064 175.391 38.4614 175.391 37.1904 175.391 36.1374 175.027 35.1924 174.299 34.3554 173.896 33.9064 173.296 33.5504 172.498 33.2874 171.7 33.0234 170.752 32.8914 169.651 32.8914L164.832 32.8914C164.003 32.8914 163.332 33.5634 163.332 34.3914L163.332 47.6344C163.332 48.4624 164.003 49.1344 164.832 49.1344L170.441 49.1344C172.673 49.1344 174.237 48.6304 175.135 47.6234 175.91 46.7564 176.298 45.7574 176.298 44.6264 176.298 43.6034 175.999 42.7484 175.402 42.0584 174.806 41.3694 174.005 40.9164 172.998 40.6994L172.998 40.6994zM184.7184 32.8919L184.0944 32.8919C183.2664 32.8919 182.5944 33.5629 182.5944 34.3919L182.5944 47.6339C182.5944 48.4629 183.2664 49.1339 184.0944 49.1339L184.7184 49.1339C185.5474 49.1339 186.2184 48.4629 186.2184 47.6339L186.2184 34.3919C186.2184 33.5629 185.5474 32.8919 184.7184 32.8919"/>
    <path d="M69.5353,21.6398 C69.9023,22.6048 69.8703,23.6558 69.4473,24.5978 L54.2463,58.4158 C53.4723,60.0778 51.9123,61.0798 50.1543,61.0798 L50.1543,61.0798 C49.9083,61.0798 49.6573,61.0598 49.4103,61.0198 C47.3953,60.6978 45.8783,59.1208 45.6353,57.0958 C45.4303,55.3848 44.9613,53.9458 44.1153,52.4288 L43.1403,50.6828 L42.2243,52.4598 C39.3473,58.0398 34.6923,60.5248 34.4963,60.6278 C33.9353,60.9228 33.3323,61.0718 32.7043,61.0718 C31.2603,61.0718 29.9473,60.2778 29.2773,58.9998 C28.7973,58.0858 28.7023,57.0388 29.0103,56.0528 C29.3183,55.0678 29.9913,54.2608 30.9063,53.7818 C30.9683,53.7488 36.7263,50.6088 36.7263,42.9368 C36.7263,39.2498 35.4423,37.4298 33.6643,34.9118 C33.4003,34.5358 33.1553,34.1888 32.9063,33.8278 L31.8263,32.2528 L19.9253,58.7318 C19.3013,60.1178 17.9153,61.0148 16.3943,61.0148 C15.8483,61.0148 15.3173,60.8998 14.8153,60.6728 C13.8723,60.2488 13.1523,59.4848 12.7853,58.5188 C12.4183,57.5538 12.4503,56.5038 12.8733,55.5618 L28.0733,21.7438 C28.8473,20.0818 30.4083,19.0798 32.1663,19.0798 C32.4123,19.0798 32.6633,19.0998 32.9103,19.1398 C34.9253,19.4618 36.4423,21.0388 36.6853,23.0648 C36.8903,24.7748 37.3593,26.2148 38.2053,27.7308 L39.1793,29.4778 L40.0963,27.7008 C42.9733,22.1198 47.6273,19.6348 47.8243,19.5318 C48.3853,19.2368 48.9883,19.0878 49.6163,19.0878 C51.0603,19.0878 52.3733,19.8818 53.0433,21.1598 C53.5223,22.0738 53.6183,23.1198 53.3103,24.1058 C53.0023,25.0918 52.3293,25.8988 51.4143,26.3778 C51.3523,26.4108 45.5943,29.5508 45.5943,37.2228 C45.5943,40.9098 46.8783,42.7288 48.6563,45.2468 C48.6563,45.2468 49.1793,45.9908 49.4143,46.3328 L50.4953,47.9058 L62.3953,21.4288 C63.0193,20.0408 64.4053,19.1458 65.9263,19.1458 C66.4723,19.1458 67.0033,19.2598 67.5053,19.4858 C68.4483,19.9098 69.1683,20.6748 69.5353,21.6398 M39.9203,0.1598 C17.8723,0.1598 0.0003,18.0328 0.0003,40.0798 C0.0003,62.1268 17.8723,79.9998 39.9203,79.9998 C61.9673,79.9998 79.8403,62.1268 79.8403,40.0798 C79.8403,18.0328 61.9673,0.1598 39.9203,0.1598" transform="translate(0 .84)"/>
  </g>
</svg>
